<svg id="Capa_1" fill="#124A2F" enable-background="new 0 0 512 512" height="512" viewBox="0 0 512 512" width="512" xmlns="http://www.w3.org/2000/svg"><g><path d="m454.761 48.599h-17.703v-23.036c.001-14.096-11.466-25.563-25.561-25.563h-3.434c-14.095 0-25.562 11.467-25.562 25.563v23.036h-47.961v-23.036c-.001-14.096-11.468-25.563-25.563-25.563h-3.434c-14.095 0-25.563 11.467-25.563 25.563v23.036h-47.962v-23.036c.001-14.096-11.466-25.563-25.561-25.563h-3.434c-14.095 0-25.563 11.467-25.563 25.563v23.036h-47.961v-23.036c0-14.096-11.467-25.563-25.562-25.563h-3.433c-14.096 0-25.563 11.467-25.563 25.563v23.036h-17.702c-26.683 0-48.391 21.708-48.391 48.391v391.383c-.001 13.028 10.599 23.627 23.627 23.627h177.759c4.142 0 7.5-3.358 7.5-7.5s-3.358-7.5-7.5-7.5h-177.759c-4.757 0-8.627-3.87-8.627-8.627v-335.782h122.717c4.142 0 7.5-3.358 7.5-7.5s-3.358-7.5-7.5-7.5h-122.718v-40.601c0-18.412 14.979-33.391 33.391-33.391h17.703v6.684c0 14.095 11.467 25.563 25.563 25.563h3.433c14.095 0 25.562-11.467 25.562-25.563v-6.684h47.961v6.684c0 14.095 11.467 25.563 25.563 25.563h3.434c14.095 0 25.562-11.467 25.562-25.563v-6.684h47.962v6.684c0 14.095 11.467 25.563 25.563 25.563h3.434c14.095 0 25.563-11.467 25.563-25.563v-6.684h47.961v6.684c0 14.095 11.467 25.563 25.562 25.563h3.434c14.095 0 25.562-11.467 25.562-25.563v-6.684h17.703c18.412 0 33.391 14.979 33.391 33.391v40.601h-311.59c-4.142 0-7.5 3.358-7.5 7.5s3.358 7.5 7.5 7.5h311.588v335.782c0 4.757-3.87 8.627-8.627 8.627h-239.291c-4.142 0-7.5 3.358-7.5 7.5s3.358 7.5 7.5 7.5h239.292c13.028 0 23.627-10.599 23.627-23.627v-391.383c0-26.683-21.708-48.391-48.392-48.391zm-340.262 21.683c0 5.824-4.738 10.563-10.562 10.563h-3.433c-5.824 0-10.563-4.738-10.563-10.563v-44.72c0-5.824 4.738-10.563 10.563-10.563h3.433c5.824 0 10.562 4.738 10.562 10.563zm102.52 0c0 5.824-4.738 10.563-10.562 10.563h-3.434c-5.824 0-10.563-4.738-10.563-10.563v-44.72c0-5.824 4.738-10.563 10.563-10.563h3.434c5.824 0 10.562 4.738 10.562 10.563zm102.52 0c0 5.824-4.738 10.563-10.563 10.563h-3.434c-5.824 0-10.563-4.738-10.563-10.563v-44.72c0-5.824 4.738-10.563 10.563-10.563h3.434c5.824 0 10.563 4.738 10.563 10.563zm102.52 0c0 5.824-4.738 10.563-10.562 10.563h-3.434c-5.824 0-10.562-4.738-10.562-10.563v-44.72c0-5.824 4.738-10.563 10.562-10.563h3.434c5.824 0 10.562 4.738 10.562 10.563z"/><path d="m132.966 206.505c0-8.239-6.703-14.942-14.943-14.942h-38.705c-8.24 0-14.943 6.703-14.943 14.942v38.706c0 8.24 6.703 14.943 14.943 14.943h38.705c8.24 0 14.943-6.703 14.943-14.943zm-53.591 38.706-.057-38.648 38.648-.058.061 38.648z"/><path d="m182.304 260.154h38.705c8.24 0 14.943-6.703 14.943-14.943v-38.706c0-8.239-6.703-14.942-14.943-14.942h-38.705c-8.24 0-14.943 6.703-14.943 14.942v38.706c0 8.24 6.703 14.943 14.943 14.943zm38.648-53.649.061 38.648-38.652.057-.057-38.648z"/><path d="m285.29 260.154h38.705c8.24 0 14.943-6.703 14.943-14.943v-38.706c0-8.239-6.703-14.942-14.943-14.942h-38.705c-8.24 0-14.943 6.703-14.943 14.942v38.706c0 8.24 6.703 14.943 14.943 14.943zm38.648-53.649.06 38.648-38.651.057-.057-38.648z"/><path d="m426.981 260.154c8.24 0 14.943-6.703 14.943-14.943v-38.706c0-8.239-6.703-14.942-14.943-14.942h-38.706c-8.239 0-14.942 6.703-14.942 14.942v38.706c0 8.24 6.703 14.943 14.942 14.943zm-.057-53.649.061 38.648-38.651.057-.058-38.648z"/><path d="m132.966 302.372c0-8.239-6.703-14.942-14.943-14.942h-38.705c-8.24 0-14.943 6.703-14.943 14.942v38.706c0 8.24 6.703 14.943 14.943 14.943h38.705c8.24 0 14.943-6.703 14.943-14.943zm-53.591 38.706-.057-38.648 38.648-.058.061 38.648z"/><path d="m167.361 341.078c0 8.24 6.704 14.943 14.943 14.943h38.705c8.24 0 14.943-6.703 14.943-14.943v-38.706c0-8.239-6.703-14.942-14.943-14.942h-38.705c-8.24 0-14.943 6.703-14.943 14.942zm53.591-38.706.061 38.648-38.652.057-.057-38.648z"/><path d="m118.023 381.468h-38.705c-8.24 0-14.943 6.703-14.943 14.943v38.705c0 8.24 6.703 14.943 14.943 14.943h38.705c8.24 0 14.943-6.703 14.943-14.943v-38.705c0-8.24-6.704-14.943-14.943-14.943zm-38.648 53.648-.057-38.648 38.648-.057.061 38.648z"/><path d="m235.952 396.411c0-8.24-6.703-14.943-14.943-14.943h-38.705c-8.24 0-14.943 6.703-14.943 14.943v38.705c0 8.24 6.704 14.943 14.943 14.943h38.705c8.24 0 14.943-6.703 14.943-14.943zm-53.591 38.705-.057-38.648 38.648-.057.061 38.648z"/><path d="m289.984 395.636c-7.601 14.926-7.501 29.319.863 37.683s22.757 8.464 37.684.863c5.179 15.929 15.427 26.036 27.256 26.036s22.077-10.107 27.256-26.036c14.927 7.6 29.32 7.501 37.684-.863s8.464-22.758.863-37.684c15.929-5.18 26.036-15.428 26.036-27.256s-10.107-22.076-26.036-27.256c7.6-14.926 7.501-29.319-.863-37.683s-22.757-8.464-37.684-.863c-5.179-15.929-15.427-26.037-27.256-26.037s-22.077 10.107-27.256 26.036c-14.926-7.6-29.319-7.501-37.684.863-8.364 8.364-8.463 22.757-.863 37.683-15.929 5.18-26.036 15.428-26.036 27.256 0 11.831 10.107 22.079 26.036 27.258zm12.967-42.235c2.566-.416 4.735-2.131 5.73-4.533s.675-5.148-.846-7.257c-6.992-9.694-11.291-22.655-6.382-27.564 4.91-4.908 17.87-.61 27.564 6.382 2.109 1.52 4.855 1.841 7.257.846s4.118-3.164 4.534-5.73c1.91-11.799 8.035-24.003 14.978-24.003 6.942 0 13.067 12.205 14.978 24.003.416 2.567 2.131 4.735 4.534 5.73 2.401.995 5.148.675 7.257-.846 9.694-6.992 22.656-11.29 27.564-6.381 4.909 4.909.61 17.869-6.382 27.563-1.521 2.108-1.841 4.855-.846 7.257s3.164 4.118 5.73 4.533c11.799 1.911 24.003 8.036 24.003 14.979 0 6.942-12.204 13.067-24.003 14.978-2.566.415-4.735 2.131-5.73 4.533s-.675 5.148.846 7.257c6.992 9.694 11.291 22.655 6.382 27.564-4.911 4.908-17.87.61-27.564-6.382-2.107-1.52-4.853-1.841-7.257-.846-2.402.995-4.118 3.164-4.534 5.73-1.91 11.799-8.035 24.003-14.978 24.003s-13.068-12.204-14.978-24.003c-.416-2.567-2.131-4.735-4.534-5.73-.924-.383-1.899-.571-2.869-.571-1.552 0-3.091.481-4.388 1.417-9.694 6.992-22.654 11.292-27.564 6.382-4.909-4.909-.61-17.87 6.382-27.564 1.521-2.109 1.841-4.855.846-7.257s-3.164-4.118-5.73-4.533c-11.799-1.911-24.003-8.036-24.003-14.978s12.204-13.067 24.003-14.979z"/><path d="m355.787 402.639c18.89 0 34.259-15.369 34.259-34.259 0-18.891-15.369-34.259-34.259-34.259-18.891 0-34.259 15.369-34.259 34.259s15.368 34.259 34.259 34.259zm0-53.518c10.619 0 19.259 8.64 19.259 19.259s-8.64 19.259-19.259 19.259c-10.62 0-19.259-8.64-19.259-19.259 0-10.62 8.639-19.259 19.259-19.259z"/></g></svg>